<svg aria-hidden="true" style="width:0;height:0;position:absolute;overflow:hidden" xmlns="http://www.w3.org/2000/svg"><defs><symbol id="icon-vector" viewBox="0 0 26 32"><path stroke-linejoin="round" stroke-linecap="round" stroke-width="6.4" d="M3.542 3.2 20.368 16 3.542 28.8"/></symbol><symbol id="icon-burger" viewBox="0 0 46 32"><path stroke-width="2.286" d="M0 2.286h45.714M0 16h45.714M0 29.714h45.714"/></symbol><symbol id="icon-close" viewBox="0 0 32 32"><path stroke-width="2" d="m2.518 2 26.963 28M2 29.481 30 2.518"/></symbol><symbol id="icon-Group_products" viewBox="0 0 139 32"><path fill="#fff" style="fill:var(--color1,#fff)" d="M85.333 16c0 8.837-7.163 16-16 16s-16-7.163-16-16 7.163-16 16-16 16 7.163 16 16zM32 16c0 8.837-7.163 16-16 16S0 24.837 0 16 7.163 0 16 0s16 7.163 16 16zM138.667 16c0 8.837-7.163 16-16 16s-16-7.163-16-16 7.163-16 16-16 16 7.163 16 16z"/></symbol><symbol id="icon-house-1" viewBox="0 0 32 32"><path fill="#d31342" style="fill:var(--color1,#d31342)" d="M31.6 16.765a1.357 1.357 0 0 0-.122-2.032l-.003-.002L17.174 3.056a1.869 1.869 0 0 0-1.146-.389c-.448 0-.86.157-1.183.419l.004-.003L.5 15.35a1.348 1.348 0 0 0-.07 2.037l.001.001.36.347c.595.581 1.56.651 2.152.155l1.072-.896v13.117c0 .803.701 1.456 1.563 1.456h5.592c.864 0 1.563-.653 1.563-1.456v-9.176h7.133v9.208a1.42 1.42 0 0 0 1.421 1.421l.048-.001h-.002 5.928c.861 0 1.56-.651 1.56-1.456V17.179s.299.24.664.541c.363.299 1.131.059 1.709-.536l.408-.419z"/></symbol><symbol id="icon-dots" viewBox="0 0 256 32"><path fill="#c7133e" style="fill:var(--color1,#c7133e)" d="M144 16c0 8.837-7.163 16-16 16s-16-7.163-16-16 7.163-16 16-16 16 7.163 16 16zM32 16c0 8.837-7.163 16-16 16S0 24.837 0 16 7.163 0 16 0s16 7.163 16 16zM256 16c0 8.837-7.163 16-16 16s-16-7.163-16-16 7.163-16 16-16 16 7.163 16 16z"/></symbol><symbol id="icon-burger-1" viewBox="0 0 46 32"><path fill="none" stroke="#d41443" style="stroke:var(--color1,#d41443)" stroke-width="2.286" d="M0 2.286h45.714M0 16h45.714M0 29.714h45.714"/></symbol><symbol id="icon-close-1" viewBox="0 0 32 32"><path fill="none" stroke="#fff" style="stroke:var(--color1,#fff)" stroke-width="2" d="m2.518 2 26.963 28M2 29.481 30 2.518"/></symbol></defs></svg>